<svg width="500" height="500" viewBox="0 0 500 500" fill="none" xmlns="http://www.w3.org/2000/svg">
<rect width="500" height="500" rx="250" fill="#F7931A"/>
<path fill-rule="evenodd" clip-rule="evenodd" d="M137.357 323.958H174.71V361.312H137.357V323.958ZM137.357 239.767H174.71V277.12H137.357V239.767ZM137.357 156.002H174.71V193.355H137.357V156.002ZM221.228 156.748H258.582V194.101H221.228V156.748ZM304.78 156.748H342.133V194.101H304.78V156.748ZM213.768 245.468V258.63H213.502H209.079H202.152V214.883C202.152 214.883 191.388 213.391 173.911 213.497C156.433 213.604 148.12 212.591 135.545 220.584C122.97 228.577 122.863 236.89 122.863 255.646C122.863 274.403 122.863 277.28 122.863 279.784C122.863 282.289 124.089 285.752 128.618 285.752H148.067C146.096 288.097 137.89 297.795 133.52 303.39C128.511 309.784 122.703 322.573 122.703 335.788C122.703 348.949 122.756 359.287 123.502 362.164C124.248 364.882 125.634 370.69 129.63 373.674C136.824 379.002 166.024 377.297 174.657 375.379C195.438 370.796 203.484 360.939 203.218 338.825C203.005 322.253 203.218 301.045 202.045 298.648C200.82 296.25 198.262 297.262 187.072 297.262C175.882 297.262 157.286 297.262 157.286 297.262L156.913 285.806H179.399C184.674 285.806 196.237 283.248 203.697 275.841C209.026 270.513 211.797 267.582 212.969 266.41L213.875 266.143V280.584C213.875 280.584 213.662 286.179 220.269 286.179C226.877 286.179 253.626 286.552 260.233 286.392C266.841 286.179 271.21 285.806 275.846 281.809C280.429 277.813 285.757 273.23 286.024 269.127C286.343 265.024 286.024 223.248 286.024 219.252C286.024 215.256 285.224 213.87 277.818 213.87C270.411 213.87 259.914 214.243 253.253 214.243C246.539 214.243 245.207 214.936 243.768 212.431C242.329 209.98 240.198 202.467 240.198 202.467H271.477L280.642 194.208C280.642 194.208 286.343 189.519 286.343 185.416C286.343 181.313 287.036 140.549 287.036 135.54C287.036 130.531 287.249 128.134 284.425 125.363C281.654 122.592 273.608 123.338 263.857 123.338C254.052 123.338 249.257 123.338 242.649 123.338C236.042 123.338 231.139 126.642 228.049 129.732C224.958 132.823 213.555 144.066 213.555 170.549H202.152V125.576C202.152 125.576 191.388 124.084 173.911 124.19C156.433 124.297 148.6 124.83 136.238 133.888C123.929 142.947 122.863 157.334 122.863 171.934C122.863 190.744 122.863 193.568 122.863 196.073C122.863 198.577 124.089 202.041 128.618 202.041C133.094 202.041 174.07 202.041 179.399 202.041C184.674 202.041 196.237 199.483 203.697 192.076C211.157 184.616 213.608 181.952 213.608 181.952V196.073V200.442C213.608 200.442 213.608 202.574 215.1 202.467H233.058C233.058 202.467 221.655 215.042 219.097 221.01C216.379 226.872 213.928 229.589 213.768 245.468ZM295.508 239.66C295.508 239.66 295.722 262.84 296.095 273.017C296.468 283.195 299.505 285.593 301.69 285.593H317.196C317.196 285.593 294.603 304.669 295.402 327.688C295.402 327.688 295.615 348.47 296.414 359.66C297.214 370.85 294.816 374.26 302.009 374.846C309.203 375.432 332.382 377.83 350.18 372.448C367.977 367.066 374.531 355.077 376.183 345.059C377.782 335.095 376.716 304.722 376.396 300.726C376.29 299.18 375.65 298.275 374.798 297.795C373.465 296.996 371.441 297.156 369.576 297.156C366.592 297.156 347.995 297.369 338.19 297.369C328.386 297.369 330.784 297.156 330.784 293.745C330.784 290.335 330.784 285.646 330.784 285.646H342.826C347.622 285.646 362.009 284.42 367.391 278.079C372.773 271.685 376.982 263.905 376.982 253.088C376.982 242.271 376.076 225.433 376.076 220.424C376.076 215.415 374.957 214.403 371.654 214.35C368.35 214.243 348.048 214.456 339.363 214.456C330.677 214.456 330.677 214.563 330.677 212.645C330.677 210.726 330.677 202.947 330.677 202.947C347.782 202.947 358.226 202.947 364.886 197.725C372.08 192.13 376.663 178.169 376.876 169.75C377.089 161.384 376.449 135.54 375.863 132.183C375.171 128.08 370.428 125.043 364.087 123.977C364.087 123.977 353.11 122.592 340.482 122.592C327.906 122.592 313.306 126.375 305.313 133.196C297.32 140.016 295.722 152.005 295.722 168.364C295.722 184.723 296.095 197.511 298.12 200.336C299.665 202.52 304.141 202.893 315.224 202.947C315.331 202.947 295.189 222.236 295.508 239.66ZM221.228 239.767H258.582V277.12H221.228V239.767ZM304.087 239.767H341.441V277.12H304.087V239.767ZM304.087 324.438H341.441V361.791H304.087V324.438Z" fill="white"/>
<path fill-rule="evenodd" clip-rule="evenodd" d="M342.127 168.572V194.149H307.332L315.271 198.572L309.943 202.835C311.541 202.888 313.353 202.888 315.325 202.888C315.271 202.941 295.129 222.231 295.449 239.655C295.449 239.655 295.662 262.834 296.035 273.012C296.408 283.189 299.446 285.587 301.63 285.587H303.175L304.028 283.989C304.028 283.989 303.762 281.218 304.614 277.062H304.028V239.762H341.381V243.065C360.351 232.621 370.795 219.62 374.259 214.824C373.619 214.504 372.767 214.344 371.648 214.291C368.344 214.185 348.042 214.398 339.356 214.398C330.671 214.398 330.671 214.504 330.671 212.586C330.671 210.668 330.671 202.888 330.671 202.888C347.776 202.888 358.22 202.888 364.88 197.666C372.074 192.071 376.656 178.11 376.87 169.691C376.976 165.055 376.816 155.037 376.603 146.512L342.127 168.572Z" fill="white"/>
<path fill-rule="evenodd" clip-rule="evenodd" d="M285.911 268.972C286.177 265.242 285.964 230.606 285.911 221.174C282.82 220.748 273.495 220.322 266.568 230.553C263.904 234.496 260.653 237.427 257.03 239.771H258.629V277.124H221.275V264.283C216.959 271.743 214.508 279.789 213.922 281.654C213.975 281.92 214.082 282.24 214.188 282.506C214.561 282.932 215.094 283.678 215.68 284.584C216.639 285.384 218.078 285.97 220.21 285.97C226.817 285.97 253.566 286.343 260.174 286.183C266.781 285.97 271.151 285.597 275.787 281.6C280.316 277.657 285.591 273.075 285.911 268.972Z" fill="white"/>
<path fill-rule="evenodd" clip-rule="evenodd" d="M203.162 338.771C203.002 325.13 203.108 308.452 202.469 301.578C183.872 304.456 178.917 314.313 174.707 327.102V361.311H149.023V377.19C159.041 377.35 169.858 376.391 174.547 375.325C195.329 370.743 203.375 360.885 203.162 338.771Z" fill="white"/>
<path fill-rule="evenodd" clip-rule="evenodd" d="M188.242 284.261C193.358 282.823 199.166 280.105 203.588 275.736C208.917 270.407 211.688 267.477 212.86 266.304L213.766 266.038V280.478C213.766 280.478 213.766 281.011 213.926 281.704C214.459 279.839 216.91 271.793 221.279 264.333V239.821H257.087C260.711 237.423 263.961 234.493 266.625 230.603C273.553 220.372 282.931 220.745 285.968 221.225C285.968 220.265 285.968 219.519 285.968 219.146C285.968 215.15 285.169 213.765 277.762 213.765C270.355 213.765 259.858 214.138 253.197 214.138C248.721 214.138 246.643 214.457 245.311 213.871L246.697 218.56L223.304 223.729L228.473 207.637C225.009 211.793 220.587 217.441 219.095 220.905C216.484 226.926 214.086 229.644 213.873 245.47V258.631H213.606H209.183H202.256V254.795L200.604 257.938V270.141L188.242 284.261Z" fill="white"/>
<path fill-rule="evenodd" clip-rule="evenodd" d="M365.63 124.236L332.273 149.067L342.131 156.741L342.291 156.847L342.131 156.954V168.517L376.714 146.456C376.501 139.529 376.234 133.561 375.968 132.069C375.328 128.393 371.279 125.515 365.63 124.236Z" fill="white"/>
<path fill-rule="evenodd" clip-rule="evenodd" d="M342.133 156.748L332.276 149.075L365.632 124.244C365.153 124.137 364.673 124.031 364.194 123.977C364.194 123.977 353.217 122.592 340.588 122.592C328.013 122.592 313.412 126.375 305.42 133.196C297.427 140.016 295.828 152.005 295.828 168.364C295.828 184.723 296.201 197.511 298.226 200.336C299.505 202.094 302.702 202.68 309.949 202.84L315.277 198.577L307.338 194.154H304.78V192.716L304.514 192.556L304.78 192.396V156.748H342.133Z" fill="white"/>
<path fill-rule="evenodd" clip-rule="evenodd" d="M243.606 212.262C242.168 209.811 240.036 202.297 240.036 202.297H271.315L280.48 194.038C280.48 194.038 286.182 189.349 286.182 185.246C286.182 182.848 286.448 167.875 286.608 154.873L279.308 155.193L258.58 168.781V194.091H221.226V193.239L220.214 193.931L213.82 181.942L213.5 182.688V195.956V200.326C213.5 200.326 213.5 202.457 214.992 202.351H232.949C232.949 202.351 230.924 204.589 228.367 207.626L223.198 223.718L246.59 218.549L245.205 213.86C244.566 213.594 244.086 213.114 243.606 212.262Z" fill="white"/>
<path fill-rule="evenodd" clip-rule="evenodd" d="M202.093 254.803V214.839C202.093 214.839 201.347 214.732 199.908 214.572L196.978 237.112L174.651 259.812V277.13H137.298V275.211L136.605 275.478L136.232 283.044L134.953 285.709H144.438L150.033 282.671L138.044 300.842L150.619 307.449L156.001 282.671L170.974 285.709H179.233C181.418 285.709 184.615 285.282 188.185 284.27L200.388 270.096V257.894L202.093 254.803Z" fill="white"/>
<path fill-rule="evenodd" clip-rule="evenodd" d="M137.357 155.993H174.71V193.346H137.357V155.993ZM179.292 201.978C184.568 201.978 196.131 199.421 203.591 192.014C211.051 184.554 213.502 181.89 213.502 181.89V182.742L213.822 181.996L220.216 193.986L221.228 193.293V156.792H258.582V168.835L279.31 155.247L286.61 154.927C286.77 145.709 286.876 137.503 286.876 135.425C286.876 130.416 287.089 128.018 284.265 125.247C281.494 122.476 273.448 123.222 263.697 123.222C253.892 123.222 249.097 123.222 242.489 123.222C235.882 123.222 230.98 126.526 227.889 129.617C224.798 132.707 213.395 143.95 213.395 170.433H201.992V125.46C201.992 125.46 191.228 123.968 173.751 124.075C156.273 124.181 148.44 124.714 136.078 133.773C123.769 142.831 122.703 157.218 122.703 171.819C122.703 190.629 122.703 193.453 122.703 195.957C122.703 198.462 123.929 201.925 128.458 201.925C133.041 201.978 174.017 201.978 179.292 201.978Z" fill="white"/>
<path fill-rule="evenodd" clip-rule="evenodd" d="M173.798 213.439C156.32 213.546 148.007 212.534 135.432 220.526C122.857 228.519 122.75 236.832 122.75 255.588C122.75 274.345 122.75 277.222 122.75 279.727C122.75 282.231 123.976 285.695 128.505 285.695H135.006L136.285 283.03L136.658 275.464L137.35 275.197V239.762H174.704V259.798L197.03 237.098L199.961 214.558C195.964 214.132 186.693 213.333 173.798 213.439Z" fill="white"/>
<path fill-rule="evenodd" clip-rule="evenodd" d="M186.963 297.214C175.773 297.214 157.176 297.214 157.176 297.214L156.803 285.758H171.03L156.057 282.721L150.675 307.499L138.1 300.891L150.089 282.721L144.494 285.758H147.958C145.986 288.103 137.78 297.801 133.411 303.396C128.402 309.79 122.594 322.578 122.594 335.793C122.594 348.955 122.647 359.292 123.393 362.17C124.139 364.887 125.524 370.695 129.521 373.679C132.771 376.13 140.658 377.09 149.023 377.249V361.37H137.301V323.964H174.654V327.108C178.863 314.319 183.819 304.461 202.416 301.584C202.256 300.092 202.096 299.079 201.883 298.653C200.764 296.202 198.153 297.214 186.963 297.214Z" fill="white"/>
</svg>
