<svg width="200" height="200" viewBox="0 0 200 200" fill="none" xmlns="http://www.w3.org/2000/svg">
<g clip-path="url(#clip0_31026_14162)">
<rect width="200" height="200" fill="#F7931A"/>
<path fill-rule="evenodd" clip-rule="evenodd" d="M43.6764 136.98H62.353V155.656H43.6764V136.98ZM43.6764 94.8839H62.353V113.561H43.6764V94.8839ZM43.6764 53.0014H62.353V71.6781H43.6764V53.0014ZM85.6122 53.3744H104.289V72.0511H85.6122V53.3744ZM127.388 53.3744H146.065V72.0511H127.388V53.3744ZM81.8822 97.7347V104.316H81.749H79.5376H76.0741V82.4418C76.0741 82.4418 70.6922 81.6958 61.9534 81.749C53.2145 81.8023 49.0582 81.2961 42.7705 85.2925C36.4828 89.289 36.4295 93.4452 36.4295 102.824C36.4295 112.202 36.4295 113.641 36.4295 114.893C36.4295 116.145 37.0423 117.877 39.307 117.877H49.0316C48.0458 119.049 43.9428 123.898 41.7581 126.695C39.2537 129.893 36.3496 136.287 36.3496 142.894C36.3496 149.475 36.3763 154.644 36.7493 156.083C37.1223 157.441 37.815 160.345 39.8132 161.837C43.41 164.502 58.0102 163.649 62.3264 162.69C72.7171 160.399 76.7401 155.47 76.6069 144.413C76.5003 136.127 76.6069 125.523 76.0208 124.324C75.408 123.125 74.1291 123.632 68.5341 123.632C62.9391 123.632 53.6408 123.632 53.6408 123.632L53.4543 117.903H64.6976C67.3352 117.903 73.1167 116.624 76.8467 112.921C79.511 110.257 80.8964 108.792 81.4826 108.205L81.9355 108.072V115.292C81.9355 115.292 81.8289 118.09 85.1326 118.09C88.4363 118.09 101.811 118.276 105.115 118.196C108.418 118.09 110.603 117.903 112.921 115.905C115.212 113.907 117.877 111.616 118.01 109.564C118.17 107.513 118.01 86.6247 118.01 84.6265C118.01 82.6283 117.61 81.9355 113.907 81.9355C110.204 81.9355 104.955 82.122 101.625 82.122C98.2675 82.122 97.6015 82.4684 96.8821 81.2162C96.1628 79.9906 95.097 76.234 95.097 76.234H110.736L115.319 72.1043C115.319 72.1043 118.17 69.7598 118.17 67.7083C118.17 65.6568 118.516 45.275 118.516 42.7706C118.516 40.2662 118.623 39.0672 117.211 37.6818C115.825 36.2964 111.802 36.6694 106.926 36.6694C102.024 36.6694 99.6263 36.6694 96.3226 36.6694C93.0189 36.6694 90.5678 38.3212 89.0225 39.8665C87.4772 41.4118 81.7756 47.0334 81.7756 60.2749H76.0741V37.7884C76.0741 37.7884 70.6922 37.0424 61.9534 37.0957C53.2145 37.149 49.298 37.4154 43.1169 41.9447C36.9624 46.4739 36.4295 53.6675 36.4295 60.9676C36.4295 70.3726 36.4295 71.7846 36.4295 73.0368C36.4295 74.2891 37.0423 76.0208 39.307 76.0208C41.545 76.0208 62.0333 76.0208 64.6976 76.0208C67.3352 76.0208 73.1167 74.742 76.8467 71.0386C80.5767 67.3086 81.8023 65.9765 81.8023 65.9765V73.0368V75.2216C81.8023 75.2216 81.8023 76.2873 82.5483 76.234H91.5269C91.5269 76.234 85.8253 82.5217 84.5465 85.5057C83.1877 88.4364 81.9621 89.7952 81.8822 97.7347ZM122.752 94.8307C122.752 94.8307 122.859 106.42 123.045 111.509C123.232 116.598 124.75 117.797 125.843 117.797H133.596C133.596 117.797 122.299 127.335 122.699 138.845C122.699 138.845 122.806 149.235 123.205 154.83C123.605 160.425 122.406 162.13 126.003 162.424C129.599 162.717 141.189 163.916 150.088 161.225C158.987 158.534 162.264 152.539 163.09 147.53C163.889 142.548 163.356 127.362 163.196 125.363C163.143 124.591 162.823 124.138 162.397 123.898C161.731 123.498 160.718 123.578 159.786 123.578C158.294 123.578 148.995 123.685 144.093 123.685C139.191 123.685 140.39 123.578 140.39 121.873C140.39 120.168 140.39 117.823 140.39 117.823H146.411C148.809 117.823 156.003 117.211 158.693 114.04C161.384 110.843 163.489 106.953 163.489 101.545C163.489 96.1362 163.036 87.717 163.036 85.2126C163.036 82.7082 162.477 82.202 160.825 82.1753C159.173 82.122 149.022 82.2286 144.679 82.2286C140.337 82.2286 140.337 82.2819 140.337 81.3228C140.337 80.3636 140.337 76.4738 140.337 76.4738C148.889 76.4738 154.111 76.4738 157.441 73.8628C161.038 71.0653 163.329 64.0848 163.436 59.8753C163.542 55.6924 163.223 42.7706 162.93 41.0921C162.583 39.0406 160.212 37.522 157.042 36.9891C157.042 36.9891 151.553 36.2964 145.239 36.2964C138.951 36.2964 131.651 38.188 127.655 41.5983C123.658 45.0086 122.859 51.0032 122.859 59.1826C122.859 67.3619 123.045 73.7562 124.058 75.1683C124.83 76.2606 127.068 76.4471 132.61 76.4738C132.663 76.4738 122.592 86.1185 122.752 94.8307ZM85.6122 94.8839H104.289V113.561H85.6122V94.8839ZM127.042 94.8839H145.718V113.561H127.042V94.8839ZM127.042 137.219H145.718V155.896H127.042V137.219Z" fill="white"/>
<path fill-rule="evenodd" clip-rule="evenodd" d="M146.065 59.286V72.0745H128.667L132.637 74.2859L129.972 76.4173C130.772 76.444 131.678 76.444 132.663 76.444C132.637 76.4706 122.566 86.1153 122.726 94.8275C122.726 94.8275 122.832 106.417 123.019 111.506C123.205 116.595 124.724 117.794 125.816 117.794H126.589L127.015 116.994C127.015 116.994 126.882 115.609 127.308 113.531H127.015V94.8808H145.692V96.5327C155.176 91.3107 160.398 84.8098 162.13 82.412C161.811 82.2521 161.384 82.1722 160.825 82.1455C159.173 82.0922 149.022 82.1988 144.679 82.1988C140.336 82.1988 140.336 82.2521 140.336 81.293C140.336 80.3338 140.336 76.444 140.336 76.444C148.889 76.444 154.111 76.444 157.441 73.833C161.038 71.0355 163.329 64.0551 163.436 59.8455C163.489 57.5276 163.409 52.5187 163.303 48.2559L146.065 59.286Z" fill="white"/>
<path fill-rule="evenodd" clip-rule="evenodd" d="M117.956 109.486C118.09 107.621 117.983 90.3035 117.956 85.5877C116.411 85.3746 111.749 85.1614 108.285 90.2768C106.953 92.2484 105.328 93.7138 103.516 94.886H104.315V113.563H85.6386V107.142C83.4806 110.872 82.255 114.895 81.9619 115.827C81.9886 115.961 82.0418 116.12 82.0951 116.254C82.2816 116.467 82.5481 116.84 82.8411 117.293C83.3207 117.692 84.0401 117.985 85.1058 117.985C88.4095 117.985 101.784 118.172 105.088 118.092C108.392 117.985 110.576 117.799 112.894 115.801C115.159 113.829 117.797 111.538 117.956 109.486Z" fill="white"/>
<path fill-rule="evenodd" clip-rule="evenodd" d="M76.5803 144.386C76.5004 137.565 76.5537 129.226 76.234 125.789C66.9356 127.228 64.4579 132.157 62.3531 138.551V155.656H49.5112V163.595C54.5201 163.675 59.9286 163.196 62.2731 162.663C72.6638 160.371 76.6869 155.443 76.5803 144.386Z" fill="white"/>
<path fill-rule="evenodd" clip-rule="evenodd" d="M69.1206 117.131C71.6783 116.412 74.5824 115.053 76.7937 112.868C79.458 110.204 80.8434 108.739 81.4296 108.153L81.8825 108.019V115.24C81.8825 115.24 81.8825 115.506 81.9624 115.852C82.2289 114.92 83.4544 110.897 85.6392 107.167V94.9111H103.543C105.355 93.7122 106.98 92.2468 108.312 90.3019C111.776 85.1865 116.465 85.373 117.984 85.6128C117.984 85.1332 117.984 84.7602 117.984 84.5737C117.984 82.5755 117.584 81.8828 113.881 81.8828C110.177 81.8828 104.929 82.0693 101.598 82.0693C99.3602 82.0693 98.3211 82.2291 97.6551 81.9361L98.3478 84.2806L86.6516 86.865L89.2359 78.8188C87.5042 80.897 85.2928 83.7211 84.5468 85.4529C83.2413 88.4636 82.0424 89.8223 81.9358 97.7352V104.316H81.8026H79.5912H76.1277V102.398L75.3017 103.97V110.071L69.1206 117.131Z" fill="white"/>
<path fill-rule="evenodd" clip-rule="evenodd" d="M157.815 37.1182L141.136 49.5337L146.065 53.3703L146.145 53.4236L146.065 53.4769V59.2584L163.356 48.2282C163.25 44.7647 163.117 41.7807 162.983 41.0347C162.664 39.1963 160.639 37.7576 157.815 37.1182Z" fill="white"/>
<path fill-rule="evenodd" clip-rule="evenodd" d="M146.065 53.3744L141.136 49.5379L157.814 37.1223C157.574 37.069 157.335 37.0157 157.095 36.9891C157.095 36.9891 151.606 36.2964 145.292 36.2964C139.004 36.2964 131.704 38.188 127.708 41.5983C123.711 45.0086 122.912 51.0032 122.912 59.1826C122.912 67.3619 123.099 73.7562 124.111 75.1683C124.75 76.0475 126.349 76.3406 129.972 76.4205L132.637 74.2891L128.667 72.0777H127.388V71.3583L127.255 71.2784L127.388 71.1985V53.3744H146.065Z" fill="white"/>
<path fill-rule="evenodd" clip-rule="evenodd" d="M96.8022 81.1308C96.0829 79.9053 95.0171 76.1486 95.0171 76.1486H110.656L115.239 72.019C115.239 72.019 118.09 69.6744 118.09 67.6229C118.09 66.424 118.223 58.9374 118.303 52.4365L114.653 52.5964L104.289 59.3903V72.0456H85.6122V71.6194L85.106 71.9657L81.9089 65.9711L81.749 66.3441V72.9781V75.1629C81.749 75.1629 81.749 76.2286 82.495 76.1753H91.4736C91.4736 76.1753 90.4612 77.2943 89.1824 78.8129L86.598 86.859L98.2942 84.2747L97.6015 81.9301C97.2818 81.7969 97.042 81.5571 96.8022 81.1308Z" fill="white"/>
<path fill-rule="evenodd" clip-rule="evenodd" d="M76.0475 102.401V82.4193C76.0475 82.4193 75.6745 82.3661 74.9551 82.2861L73.4898 93.556L62.3264 104.906V113.565H43.6498V112.606L43.3035 112.739L43.117 116.522L42.4775 117.854H47.22L50.0175 116.336L44.0228 125.421L50.3105 128.725L53.0015 116.336L60.4881 117.854H64.6177C65.7101 117.854 67.3086 117.641 69.0937 117.135L75.1949 110.048V103.947L76.0475 102.401Z" fill="white"/>
<path fill-rule="evenodd" clip-rule="evenodd" d="M43.6764 52.9965H62.353V71.6731H43.6764V52.9965ZM64.6443 75.9892C67.2819 75.9892 73.0634 74.7104 76.7934 71.007C80.5234 67.277 81.749 65.9449 81.749 65.9449V66.3712L81.9088 65.9982L85.106 71.9928L85.6122 71.6464V53.3961H104.289V59.4174L114.653 52.6235L118.303 52.4636C118.383 47.8544 118.436 43.7514 118.436 42.7123C118.436 40.2079 118.543 39.009 117.131 37.6235C115.745 36.2381 111.722 36.6111 106.847 36.6111C101.944 36.6111 99.5464 36.6111 96.2427 36.6111C92.939 36.6111 90.4878 38.263 88.9425 39.8083C87.3973 41.3535 81.6957 46.9752 81.6957 60.2167H75.9941V37.7301C75.9941 37.7301 70.6123 36.9841 61.8734 37.0374C53.1346 37.0907 49.2181 37.3571 43.037 41.8864C36.8825 46.4157 36.3496 53.6092 36.3496 60.9094C36.3496 70.3143 36.3496 71.7264 36.3496 72.9786C36.3496 74.2308 36.9624 75.9626 39.227 75.9626C41.5183 75.9892 62.0067 75.9892 64.6443 75.9892Z" fill="white"/>
<path fill-rule="evenodd" clip-rule="evenodd" d="M61.8998 81.7197C53.161 81.773 49.0047 81.2668 42.717 85.2632C36.4293 89.2596 36.376 93.4159 36.376 102.794C36.376 112.172 36.376 113.611 36.376 114.863C36.376 116.116 36.9888 117.847 39.2534 117.847H42.5038L43.1433 116.515L43.3298 112.732L43.6761 112.599V94.8812H62.3527V104.899L73.5161 93.5491L74.9814 82.2792C72.9832 82.066 68.3474 81.6664 61.8998 81.7197Z" fill="white"/>
<path fill-rule="evenodd" clip-rule="evenodd" d="M68.4809 123.608C62.8859 123.608 53.5876 123.608 53.5876 123.608L53.4011 117.879H60.5147L53.0281 116.361L50.3372 128.75L44.0495 125.446L50.0441 116.361L47.2466 117.879H48.9784C47.9926 119.052 43.8896 123.901 41.7049 126.698C39.2005 129.895 36.2964 136.29 36.2964 142.897C36.2964 149.478 36.323 154.647 36.696 156.085C37.069 157.444 37.7617 160.348 39.76 161.84C41.3852 163.066 45.3283 163.545 49.5112 163.625V155.686H43.6498V136.982H62.3264V138.554C64.4312 132.16 66.909 127.231 76.2073 125.792C76.1274 125.046 76.0475 124.54 75.9409 124.327C75.3814 123.101 74.0759 123.608 68.4809 123.608Z" fill="white"/>
</g>
<defs>
<clipPath id="clip0_31026_14162">
<rect width="200" height="200" fill="white"/>
</clipPath>
</defs>
</svg>
