<svg width="32" height="32" viewBox="0 0 32 32" fill="none" xmlns="http://www.w3.org/2000/svg">
<g clip-path="url(#clip0_3445_21250)">
<rect width="32" height="32" fill="#F7931A"/>
<path fill-rule="evenodd" clip-rule="evenodd" d="M6.98478 21.916H9.97304V24.9042H6.98478V21.916ZM6.98478 15.1806H9.97304V18.1689H6.98478V15.1806ZM6.98478 8.47945H9.97304V11.4677H6.98478V8.47945ZM13.6945 8.53913H16.6828V11.5274H13.6945V8.53913ZM20.3787 8.53913H23.3669V11.5274H20.3787V8.53913ZM13.0977 15.6368V16.6897H13.0764H12.7226H12.1684V13.1899C12.1684 13.1899 11.3073 13.0705 9.9091 13.0791C8.51089 13.0876 7.84588 13.0066 6.83985 13.646C5.83381 14.2855 5.82529 14.9505 5.82529 16.451C5.82529 17.9515 5.82529 18.1817 5.82529 18.3821C5.82529 18.5824 5.92333 18.8595 6.28568 18.8595H7.84162C7.68389 19.0471 7.02741 19.8229 6.67786 20.2705C6.27715 20.782 5.8125 21.8051 5.8125 22.8623C5.8125 23.9152 5.81676 24.7422 5.87644 24.9724C5.93612 25.1898 6.04696 25.6545 6.36667 25.8932C6.94216 26.3195 9.2782 26.1831 9.96878 26.0296C11.6313 25.663 12.275 24.8744 12.2537 23.1053C12.2366 21.7795 12.2537 20.0829 12.1599 19.8911C12.0618 19.6993 11.8572 19.7803 10.962 19.7803C10.0668 19.7803 8.57909 19.7803 8.57909 19.7803L8.54925 18.8638H10.3482C10.7702 18.8638 11.6952 18.6591 12.292 18.0666C12.7183 17.6403 12.94 17.4059 13.0338 17.3121L13.1062 17.2908V18.446C13.1062 18.446 13.0892 18.8936 13.6178 18.8936C14.1464 18.8936 16.2863 18.9234 16.8149 18.9106C17.3435 18.8936 17.6931 18.8638 18.0639 18.544C18.4305 18.2243 18.8568 17.8577 18.8781 17.5295C18.9037 17.2012 18.8781 13.8592 18.8781 13.5395C18.8781 13.2197 18.8142 13.1089 18.2217 13.1089C17.6291 13.1089 16.7893 13.1387 16.2565 13.1387C15.7194 13.1387 15.6128 13.1942 15.4977 12.9938C15.3826 12.7977 15.2121 12.1967 15.2121 12.1967H17.7144L18.4476 11.5359C18.4476 11.5359 18.9037 11.1608 18.9037 10.8325C18.9037 10.5043 18.9591 7.24322 18.9591 6.84251C18.9591 6.44181 18.9762 6.24998 18.7503 6.02831C18.5286 5.80664 17.8849 5.86632 17.1048 5.86632C16.3204 5.86632 15.9368 5.86632 15.4082 5.86632C14.8796 5.86632 14.4874 6.13062 14.2402 6.37786C13.9929 6.62511 13.0807 7.52457 13.0807 9.64321H12.1684V6.04536C12.1684 6.04536 11.3073 5.926 9.9091 5.93453C8.51089 5.94305 7.88425 5.98568 6.89526 6.71037C5.91055 7.43505 5.82529 8.58602 5.82529 9.75404C5.82529 11.2588 5.82529 11.4848 5.82529 11.6851C5.82529 11.8855 5.92333 12.1626 6.28568 12.1626C6.64376 12.1626 9.92189 12.1626 10.3482 12.1626C10.7702 12.1626 11.6952 11.9579 12.292 11.3654C12.8888 10.7686 13.0849 10.5555 13.0849 10.5555V11.6851V12.0347C13.0849 12.0347 13.0849 12.2052 13.2043 12.1967H14.6409C14.6409 12.1967 13.7286 13.2027 13.524 13.6801C13.3066 14.149 13.1105 14.3664 13.0977 15.6368ZM19.6369 15.1721C19.6369 15.1721 19.654 17.0265 19.6838 17.8407C19.7137 18.6549 19.9566 18.8467 20.1314 18.8467H21.3719C21.3719 18.8467 19.5645 20.3728 19.6284 22.2144C19.6284 22.2144 19.6455 23.8769 19.7094 24.7721C19.7733 25.6673 19.5815 25.9401 20.157 25.987C20.7325 26.0339 22.5868 26.2257 24.0106 25.7952C25.4344 25.3646 25.9587 24.4055 26.0909 23.604C26.2188 22.8069 26.1335 20.3771 26.1079 20.0574C26.0994 19.9337 26.0483 19.8613 25.9801 19.8229C25.8735 19.759 25.7115 19.7717 25.5623 19.7717C25.3236 19.7717 23.8358 19.7888 23.0515 19.7888C22.2671 19.7888 22.4589 19.7717 22.4589 19.4989C22.4589 19.2261 22.4589 18.851 22.4589 18.851H23.4223C23.806 18.851 24.957 18.7529 25.3875 18.2456C25.8181 17.7341 26.1548 17.1117 26.1548 16.2464C26.1548 15.381 26.0824 14.0339 26.0824 13.6332C26.0824 13.2325 25.9928 13.1515 25.7285 13.1473C25.4642 13.1387 23.8401 13.1558 23.1453 13.1558C22.4504 13.1558 22.4504 13.1643 22.4504 13.0109C22.4504 12.8574 22.4504 12.235 22.4504 12.235C23.8188 12.235 24.6543 12.235 25.1872 11.8173C25.7626 11.3697 26.1292 10.2528 26.1463 9.57926C26.1634 8.91 26.1122 6.84251 26.0653 6.57395C26.0099 6.24571 25.6305 6.00273 25.1232 5.91747C25.1232 5.91747 24.2451 5.80664 23.2348 5.80664C22.2287 5.80664 21.0607 6.1093 20.4213 6.65495C19.7819 7.20059 19.654 8.15974 19.654 9.46843C19.654 10.7771 19.6838 11.8002 19.8458 12.0261C19.9694 12.2009 20.3275 12.2308 21.2142 12.235C21.2227 12.235 19.6114 13.7782 19.6369 15.1721ZM13.6945 15.1806H16.6828V18.1689H13.6945V15.1806ZM20.3232 15.1806H23.3115V18.1689H20.3232V15.1806ZM20.3232 21.9543H23.3115V24.9426H20.3232V21.9543Z" fill="white"/>
<path fill-rule="evenodd" clip-rule="evenodd" d="M23.3674 9.48552V11.5317H20.5837L21.2189 11.8855L20.7926 12.2265C20.9205 12.2308 21.0654 12.2308 21.2232 12.2308C21.2189 12.2351 19.6075 13.7782 19.6331 15.1722C19.6331 15.1722 19.6502 17.0265 19.68 17.8407C19.7098 18.6549 19.9528 18.8467 20.1276 18.8467H20.2512L20.3194 18.7189C20.3194 18.7189 20.2981 18.4972 20.3663 18.1647H20.3194V15.1807H23.3077V15.445C24.8253 14.6095 25.6608 13.5693 25.9379 13.1857C25.8867 13.1601 25.8185 13.1473 25.729 13.1431C25.4647 13.1345 23.8405 13.1516 23.1457 13.1516C22.4509 13.1516 22.4509 13.1601 22.4509 13.0066C22.4509 12.8532 22.4509 12.2308 22.4509 12.2308C23.8192 12.2308 24.6548 12.2308 25.1876 11.813C25.7631 11.3654 26.1297 10.2486 26.1468 9.57504C26.1553 9.20418 26.1425 8.40276 26.1254 7.7207L23.3674 9.48552Z" fill="white"/>
<path fill-rule="evenodd" clip-rule="evenodd" d="M18.8763 17.5171C18.8976 17.2187 18.8806 14.4479 18.8763 13.6933C18.6291 13.6592 17.8831 13.6251 17.3289 14.4436C17.1157 14.759 16.8557 14.9935 16.5658 15.1811H16.6937V18.1693H13.7055V17.142C13.3602 17.7388 13.1641 18.3825 13.1172 18.5317C13.1215 18.553 13.13 18.5786 13.1385 18.5999C13.1683 18.634 13.211 18.6937 13.2579 18.7661C13.3346 18.8301 13.4497 18.877 13.6202 18.877C14.1488 18.877 16.2887 18.9068 16.8173 18.894C17.3459 18.877 17.6955 18.8471 18.0664 18.5274C18.4287 18.212 18.8507 17.8453 18.8763 17.5171Z" fill="white"/>
<path fill-rule="evenodd" clip-rule="evenodd" d="M12.2529 23.1024C12.2401 22.0111 12.2487 20.6769 12.1975 20.127C10.7098 20.3571 10.3133 21.1458 9.97657 22.1689V24.9056H7.92188V26.1759C8.72329 26.1887 9.58865 26.112 9.96378 26.0267C11.6263 25.6601 12.27 24.8715 12.2529 23.1024Z" fill="white"/>
<path fill-rule="evenodd" clip-rule="evenodd" d="M11.0625 18.7413C11.4717 18.6262 11.9364 18.4088 12.2902 18.0593C12.7165 17.633 12.9382 17.3985 13.0319 17.3047L13.1044 17.2834V18.4386C13.1044 18.4386 13.1044 18.4813 13.1172 18.5367C13.1598 18.3875 13.3559 17.7438 13.7055 17.147V15.1861H16.5701C16.86 14.9943 17.12 14.7598 17.3332 14.4486C17.8873 13.6302 18.6376 13.66 18.8806 13.6984C18.8806 13.6216 18.8806 13.5619 18.8806 13.5321C18.8806 13.2124 18.8166 13.1016 18.2241 13.1016C17.6316 13.1016 16.7918 13.1314 16.2589 13.1314C15.9008 13.1314 15.7346 13.157 15.628 13.1101L15.7388 13.4852L13.8675 13.8987L14.281 12.6113C14.0039 12.9438 13.6501 13.3957 13.5307 13.6728C13.3218 14.1545 13.13 14.3719 13.1129 15.638V16.6909H13.0916H12.7378H12.1836V16.384L12.0515 16.6355V17.6117L11.0625 18.7413Z" fill="white"/>
<path fill-rule="evenodd" clip-rule="evenodd" d="M25.2467 5.93945L22.5781 7.92594L23.3668 8.53979L23.3795 8.54832L23.3668 8.55684V9.48188L26.1333 7.71706C26.1163 7.16289 26.095 6.68545 26.0737 6.56609C26.0225 6.27196 25.6985 6.04176 25.2467 5.93945Z" fill="white"/>
<path fill-rule="evenodd" clip-rule="evenodd" d="M23.3685 8.53913L22.5799 7.92528L25.2484 5.93879C25.21 5.93026 25.1717 5.92174 25.1333 5.91747C25.1333 5.91747 24.2552 5.80664 23.2449 5.80664C22.2388 5.80664 21.0708 6.1093 20.4314 6.65495C19.7919 7.20059 19.6641 8.15974 19.6641 9.46843C19.6641 10.7771 19.6939 11.8002 19.8559 12.0261C19.9582 12.1668 20.214 12.2137 20.7937 12.2265L21.22 11.8855L20.5848 11.5317H20.3802V11.4166L20.3589 11.4038L20.3802 11.391V8.53913H23.3685Z" fill="white"/>
<path fill-rule="evenodd" clip-rule="evenodd" d="M15.4866 12.9817C15.3715 12.7856 15.201 12.1846 15.201 12.1846H17.7033L18.4365 11.5238C18.4365 11.5238 18.8927 11.1487 18.8927 10.8205C18.8927 10.6286 18.914 9.43076 18.9268 8.39062L18.3427 8.4162L16.6845 9.50323V11.5281H13.6962V11.4599L13.6152 11.5153L13.1037 10.5562L13.0781 10.6158V11.6773V12.0268C13.0781 12.0268 13.0781 12.1974 13.1975 12.1888H14.6341C14.6341 12.1888 14.4721 12.3679 14.2675 12.6108L13.854 13.8982L15.7254 13.4847L15.6145 13.1096C15.5634 13.0883 15.525 13.0499 15.4866 12.9817Z" fill="white"/>
<path fill-rule="evenodd" clip-rule="evenodd" d="M12.1681 16.3845V13.1873C12.1681 13.1873 12.1084 13.1788 11.9933 13.166L11.7588 14.9692L9.9727 16.7852V18.1706H6.98444V18.0171L6.92902 18.0385L6.89918 18.6438L6.79688 18.8569H7.55566L8.00326 18.6139L7.04412 20.0676L8.05015 20.5962L8.4807 18.6139L9.67856 18.8569H10.3393C10.5141 18.8569 10.7699 18.8228 11.0555 18.7418L12.0317 17.6079V16.6317L12.1681 16.3845Z" fill="white"/>
<path fill-rule="evenodd" clip-rule="evenodd" d="M6.98478 8.47857H9.97304V11.4668H6.98478V8.47857ZM10.3396 12.1574C10.7617 12.1574 11.6867 11.9528 12.2835 11.3603C12.8803 10.7635 13.0764 10.5503 13.0764 10.5503V10.6185L13.102 10.5588L13.6135 11.518L13.6945 11.4626V8.54252H16.6828V9.50592L18.341 8.41889L18.925 8.39332C18.9378 7.65584 18.9463 6.99936 18.9463 6.83311C18.9463 6.43241 18.9634 6.24058 18.7375 6.01891C18.5158 5.79724 17.8721 5.85692 17.092 5.85692C16.3076 5.85692 15.924 5.85692 15.3954 5.85692C14.8668 5.85692 14.4746 6.12122 14.2274 6.36846C13.9801 6.61571 13.0679 7.51517 13.0679 9.63381H12.1556V6.03596C12.1556 6.03596 11.2945 5.9166 9.89631 5.92513C8.4981 5.93365 7.87146 5.97628 6.88248 6.70096C5.89776 7.42565 5.8125 8.57662 5.8125 9.74464C5.8125 11.2494 5.8125 11.4754 5.8125 11.6757C5.8125 11.8761 5.91055 12.1532 6.27289 12.1532C6.63949 12.1574 9.91763 12.1574 10.3396 12.1574Z" fill="white"/>
<path fill-rule="evenodd" clip-rule="evenodd" d="M9.90412 13.075C8.50591 13.0835 7.8409 13.0025 6.83487 13.642C5.82884 14.2814 5.82031 14.9464 5.82031 16.4469C5.82031 17.9474 5.82031 18.1776 5.82031 18.378C5.82031 18.5783 5.91836 18.8554 6.2807 18.8554H6.80077L6.90308 18.6423L6.93292 18.037L6.98833 18.0156V15.1808H9.97659V16.7837L11.7627 14.9677L11.9972 13.1645C11.6775 13.1304 10.9357 13.0665 9.90412 13.075Z" fill="white"/>
<path fill-rule="evenodd" clip-rule="evenodd" d="M10.9542 19.7767C10.059 19.7767 8.57128 19.7767 8.57128 19.7767L8.54144 18.8602H9.67962L8.48176 18.6172L8.05121 20.5994L7.04518 20.0708L8.00432 18.6172L7.55672 18.8602H7.8338C7.67608 19.0477 7.0196 19.8236 6.67005 20.2712C6.26934 20.7827 5.80469 21.8058 5.80469 22.863C5.80469 23.9159 5.80895 24.7429 5.86863 24.9731C5.92831 25.1905 6.03914 25.6552 6.35886 25.8939C6.61889 26.09 7.24979 26.1667 7.91906 26.1795V24.9092H6.98123V21.9166H9.96949V22.1681C10.3063 21.1451 10.7027 20.3564 12.1904 20.1262C12.1777 20.0069 12.1649 19.9259 12.1478 19.8918C12.0583 19.6957 11.8494 19.7767 10.9542 19.7767Z" fill="white"/>
</g>
<defs>
<clipPath id="clip0_3445_21250">
<rect width="32" height="32" fill="white"/>
</clipPath>
</defs>
</svg>
